<svg width="44" height="46" viewBox="0 0 44 46" fill="none" xmlns="http://www.w3.org/2000/svg">
<path d="M39 7H5C2.23858 7 0 9.23858 0 12V32C0 34.7614 2.23858 37 5 37H39C41.7614 37 44 34.7614 44 32V12C44 9.23858 41.7614 7 39 7Z" fill="white"/>
<path d="M37 10H7C5.34315 10 4 11.3431 4 13V31C4 32.6569 5.34315 34 7 34H37C38.6569 34 40 32.6569 40 31V13C40 11.3431 38.6569 10 37 10Z" fill="#EF7E08"/>
<path d="M38.5 0.5L27 12L31 16L43 5L38.5 0.5Z" fill="white"/>
<path d="M34 5L33 6L37.5 10L38.5 9L34 5Z" fill="#EF7E08"/>
<path d="M34 5L33 6L37.5 10L38.5 9L34 5Z" fill="#EF7E08"/>
<path d="M31 8L30 9L34.5 13L35.5 12L31 8Z" fill="#EF7E08"/>
<path d="M31 8L30 9L34.5 13L35.5 12L31 8Z" fill="#EF7E08"/>
<path d="M31 43.5L29.5 36.5L38.4999 36.5L31 43.5Z" fill="white"/>
<path d="M11.5 25C12.8807 25 14 23.8807 14 22.5C14 21.1193 12.8807 20 11.5 20C10.1193 20 9 21.1193 9 22.5C9 23.8807 10.1193 25 11.5 25Z" fill="white"/>
<path d="M29.5 25C30.8807 25 32 23.8807 32 22.5C32 21.1193 30.8807 20 29.5 20C28.1193 20 27 21.1193 27 22.5C27 23.8807 28.1193 25 29.5 25Z" fill="white"/>
<path d="M25.9999 17L27 12.0001L31 16L25.9999 17Z" fill="white"/>
<path d="M27.0001 16L28.0002 13L30 15.0001L27.0001 16Z" fill="#EF7E08"/>
<path d="M20.5 25C21.8807 25 23 23.8807 23 22.5C23 21.1193 21.8807 20 20.5 20C19.1193 20 18 21.1193 18 22.5C18 23.8807 19.1193 25 20.5 25Z" fill="white"/>
</svg>
