<svg width="60" height="62" viewBox="0 0 60 62" fill="none" xmlns="http://www.w3.org/2000/svg">
<path d="M39.8867 19.5917C50.8423 19.4151 59.7842 28.5149 59.9963 40.0758C60.0275 41.7732 59.8667 43.4253 59.5355 45.01C58.9746 47.6933 58.6412 50.4239 58.6412 53.1717V58.4831C58.6412 59.2969 58.0162 59.9566 57.2451 59.9566H52.2121C49.6083 59.9566 47.0209 60.3084 44.4783 60.9003C42.9768 61.2498 41.4113 61.4195 39.8029 61.3866C28.8482 61.1628 20.2254 51.7265 20.3925 40.165C20.5555 28.88 29.1934 19.7641 39.8867 19.5917Z" fill="url(#paint0_linear)"/>
<path d="M39.8867 19.5917C50.8423 19.4151 59.7842 28.5149 59.9963 40.0758C60.0275 41.7732 59.8667 43.4253 59.5355 45.01C58.9746 47.6933 58.6412 50.4239 58.6412 53.1717V58.4831C58.6412 59.2969 58.0162 59.9566 57.2451 59.9566H52.2121C49.6083 59.9566 47.0209 60.3084 44.4783 60.9003C42.9768 61.2498 41.4113 61.4195 39.8029 61.3866C28.8482 61.1628 20.2254 51.7265 20.3925 40.165C20.5555 28.88 29.1934 19.7641 39.8867 19.5917Z" fill="url(#paint1_linear)"/>
<path d="M24.5037 0.518705C11.1568 0.303518 0.263128 11.3895 0.00461242 25.4739C-0.0332392 27.5416 0.162581 29.5546 0.566175 31.4851C1.24938 34.7539 1.65555 38.0806 1.65555 41.4282V47.8989C1.65555 48.8903 2.41704 49.694 3.35653 49.694H9.48801C12.66 49.694 15.8123 50.1227 18.9099 50.8437C20.7392 51.2695 22.6465 51.4762 24.6058 51.4362C37.9516 51.1635 48.4564 39.6675 48.253 25.5824C48.0542 11.8342 37.531 0.728575 24.5037 0.518705Z" fill="url(#paint2_linear)"/>
<path d="M15.4914 24.6135C14.8098 23.8492 13.8451 23.3693 12.7719 23.3693C10.7079 23.3693 9.03467 25.135 9.03467 27.3133C9.03467 28.4457 9.48936 29.4638 10.2137 30.1832L18.2755 38.691C18.9572 39.4553 19.9219 39.9352 20.9949 39.9352C23.059 39.9352 24.7322 38.1695 24.7322 35.9912C24.7322 34.8588 24.2774 33.8407 23.5532 33.1213L15.4914 24.6135Z" fill="url(#paint3_linear)"/>
<path d="M12.7719 31.2568C14.8359 31.2568 16.5091 29.491 16.5091 27.3128C16.5091 25.1346 14.8359 23.3688 12.7719 23.3688C10.7079 23.3688 9.03467 25.1346 9.03467 27.3128C9.03467 29.491 10.7079 31.2568 12.7719 31.2568Z" fill="white"/>
<path d="M26.0604 24.6135C25.3789 23.8492 24.4142 23.3693 23.341 23.3693C21.277 23.3693 19.6038 25.135 19.6038 27.3133C19.6038 28.4457 20.0584 29.4638 20.7828 30.1832L28.8446 38.691C29.5263 39.4553 30.491 39.9352 31.564 39.9352C33.6281 39.9352 35.3013 38.1695 35.3013 35.9912C35.3013 34.8588 34.8465 33.8407 34.1222 33.1213L26.0604 24.6135Z" fill="url(#paint4_linear)"/>
<path d="M23.3412 31.2568C25.4052 31.2568 27.0785 29.491 27.0785 27.3128C27.0785 25.1346 25.4052 23.3688 23.3412 23.3688C21.2772 23.3688 19.604 25.1346 19.604 27.3128C19.604 29.491 21.2772 31.2568 23.3412 31.2568Z" fill="white"/>
<path d="M36.6295 24.6135C35.948 23.8492 34.9833 23.3693 33.9101 23.3693C31.8461 23.3693 30.1729 25.135 30.1729 27.3133C30.1729 28.4457 30.6277 29.4638 31.3519 30.1832L39.4137 38.691C40.0954 39.4553 41.06 39.9352 42.1331 39.9352C44.1972 39.9352 45.8704 38.1695 45.8704 35.9912C45.8704 34.8588 45.4156 33.8407 44.6913 33.1213L36.6295 24.6135Z" fill="url(#paint5_linear)"/>
<path d="M33.9106 31.2568C35.9746 31.2568 37.6478 29.491 37.6478 27.3128C37.6478 25.1346 35.9746 23.3688 33.9106 23.3688C31.8466 23.3688 30.1733 25.1346 30.1733 27.3128C30.1733 29.491 31.8466 31.2568 33.9106 31.2568Z" fill="white"/>
<defs>
<linearGradient id="paint0_linear" x1="36.1972" y1="36.2721" x2="66.8385" y2="65.307" gradientUnits="userSpaceOnUse">
<stop stop-color="#A7F3CE"/>
<stop offset="1" stop-color="#61DB99"/>
</linearGradient>
<linearGradient id="paint1_linear" x1="45.7155" y1="46.3165" x2="32.7008" y2="33.9853" gradientUnits="userSpaceOnUse">
<stop stop-color="#61DB99" stop-opacity="0"/>
<stop offset="1" stop-color="#009E74"/>
</linearGradient>
<linearGradient id="paint2_linear" x1="15.3128" y1="21.8618" x2="47.6637" y2="52.5167" gradientUnits="userSpaceOnUse">
<stop stop-color="#62E1FB"/>
<stop offset="1" stop-color="#006072"/>
</linearGradient>
<linearGradient id="paint3_linear" x1="21.0854" y1="36.0875" x2="4.05222" y2="19.9477" gradientUnits="userSpaceOnUse">
<stop stop-color="#00A2F3" stop-opacity="0"/>
<stop offset="1" stop-color="#0075CD"/>
</linearGradient>
<linearGradient id="paint4_linear" x1="31.6538" y1="36.0871" x2="14.6211" y2="19.9473" gradientUnits="userSpaceOnUse">
<stop stop-color="#00A2F3" stop-opacity="0"/>
<stop offset="1" stop-color="#0075CD"/>
</linearGradient>
<linearGradient id="paint5_linear" x1="42.2228" y1="36.0873" x2="25.1901" y2="19.9475" gradientUnits="userSpaceOnUse">
<stop stop-color="#00A2F3" stop-opacity="0"/>
<stop offset="1" stop-color="#0075CD"/>
</linearGradient>
</defs>
</svg>
